<svg width="235" height="279" viewBox="0 0 235 279" fill="none" xmlns="http://www.w3.org/2000/svg">
<path fill-rule="evenodd" clip-rule="evenodd" d="M19.8586 0.157542L0.108606 0.483546L0.0335942 14.2125C-0.00840583 21.7635 -0.0113638 79.2415 0.0266362 141.942C0.0646362 204.642 0.0985873 261.005 0.101587 267.192L0.108606 278.442H117.109H234.109V139.442V0.441538L149.859 0.395533C103.522 0.369533 59.7586 0.232533 52.6086 0.0895333C45.4586 -0.0524667 30.7206 -0.0224583 19.8586 0.157542ZM4.10861 87.9455V171.451L116.859 171.196L229.609 170.942L229.865 87.6915L230.12 4.44154H117.115H4.10861V87.9455ZM104.979 13.4455C97.0906 14.6985 87.7336 17.9765 80.1086 22.1585C74.9226 25.0025 67.4926 31.8035 43.3586 55.7955C26.7206 72.3355 13.1086 86.3455 13.1086 86.9295C13.1086 88.3875 65.3016 140.147 72.0566 145.387C78.9266 150.716 86.6056 154.606 96.1436 157.587C102.393 159.541 105.727 159.916 116.609 159.888C130.205 159.853 134.366 159.1 145.109 154.727C156.559 150.067 163.021 144.704 192.609 115.307L221.609 86.4925L194.109 58.8916C178.984 43.7106 163.837 29.2885 160.449 26.8425C153.533 21.8485 141.956 16.2825 134.963 14.5895C128.467 13.0175 111.704 12.3775 104.979 13.4455ZM102.749 20.9235C94.3146 22.6845 84.4296 27.2185 77.1226 32.6765C70.2846 37.7845 23.1086 84.3705 23.1086 86.0155C23.1086 89.9815 38.4276 92.0065 45.6376 88.9935C48.1116 87.9605 56.5046 80.4665 69.1446 68.0045C93.8116 43.6875 99.6986 40.2835 117.084 40.2835C126.095 40.2835 134.01 42.3585 140.363 46.3875C155.882 56.2295 163.182 69.3335 163.194 87.3745L163.2 96.8065L171.404 88.7025C180.933 79.2895 186.052 76.3425 194.288 75.5285L200.23 74.9415L179.419 54.3135C156.567 31.6625 150.107 26.7935 137.687 22.8645C127.538 19.6535 112.764 18.8325 102.749 20.9235ZM110.891 47.5025C100.31 48.7385 88.4806 56.8315 82.6086 66.8515C68.7296 90.5335 83.5396 121.08 111.049 125.51C123.381 127.496 134.646 123.886 144.018 114.947C152.25 107.095 155.455 99.8245 155.923 87.9415C156.356 76.9255 154.178 70.1645 147.587 62.0735C138.282 50.6515 125.928 45.7455 110.891 47.5025ZM62.7356 84.3145C58.4306 88.6445 52.9416 93.1695 50.5376 94.3695C46.2396 96.5165 36.3286 98.6715 34.8586 97.7785C27.5796 93.3605 72.0836 137.281 80.5646 142.886C99.8356 155.622 126.015 156.713 147.606 145.68C156.162 141.309 157.975 139.725 184.098 113.819L211.586 86.5575L207.098 84.5215C201.387 81.9315 193.012 81.8485 187.553 84.3275C185.028 85.4745 176.16 93.3825 164.053 105.285C141.756 127.203 136.582 130.701 123.838 132.473C93.8116 136.65 67.7496 112.343 70.4616 82.6915C70.7766 79.2545 70.9276 76.4415 70.7976 76.4415C70.6676 76.4415 67.0396 79.9845 62.7356 84.3145ZM15.3316 182.999C10.6926 186.247 13.5456 192.442 19.6796 192.442C22.4416 192.442 23.1086 192.831 23.1086 194.442C23.1086 196.146 22.4416 196.442 18.6086 196.442C15.2106 196.442 14.1086 196.822 14.1086 197.992C14.1086 199.246 15.2006 199.485 19.8386 199.242C25.1016 198.966 25.6496 198.713 26.5506 196.139C27.8816 192.338 26.2746 190.027 22.0116 189.61C14.8596 188.911 14.5726 185.442 21.6676 185.442C25.4416 185.442 26.1086 185.142 26.1086 183.442C26.1086 181.754 25.4416 181.442 21.8316 181.442C19.4786 181.442 16.5536 182.143 15.3316 182.999ZM30.1086 190.442V199.442H36.1086C40.7756 199.442 42.1086 199.109 42.1086 197.942C42.1086 196.831 40.9416 196.442 37.6086 196.442C33.7756 196.442 33.1086 196.146 33.1086 194.442C33.1086 192.886 33.7756 192.442 36.1086 192.442C39.9826 192.442 40.2056 189.701 36.3676 189.258C34.7136 189.068 33.4936 188.247 33.2936 187.192C33.0166 185.732 33.7196 185.442 37.5356 185.442C41.4416 185.442 42.1086 185.15 42.1086 183.442C42.1086 181.664 41.4416 181.442 36.1086 181.442H30.1086V190.442ZM47.9646 182.958C42.5896 185.878 42.2456 193.696 47.3036 197.953C50.6266 200.749 51.5126 200.894 55.8986 199.365C60.2096 197.863 59.1436 195.4 54.5076 196.152C47.2136 197.336 44.1406 189.214 50.5556 185.706C51.7336 185.063 53.3836 184.976 54.7286 185.488C57.8776 186.685 60.1046 184.045 57.2386 182.512C54.5356 181.065 51.1506 181.228 47.9646 182.958ZM61.1086 188.268C61.1086 194.11 61.4426 195.407 63.4226 197.268C66.2616 199.934 71.1986 200.105 73.4536 197.613C75.7376 195.09 75.8686 181.442 73.6086 181.442C72.4316 181.442 72.1086 182.817 72.1086 187.82C72.1086 194.724 70.7086 197.085 67.2646 195.991C64.9716 195.264 64.1406 192.672 64.1226 186.192C64.1116 182.643 63.7296 181.442 62.6086 181.442C61.4216 181.442 61.1086 182.867 61.1086 188.268ZM79.1086 190.442C79.1086 197.775 79.3866 199.442 80.6086 199.442C81.4336 199.442 82.1086 198.767 82.1086 197.942C82.1086 197.027 83.0416 196.442 84.5016 196.442C85.8176 196.442 87.1536 197.117 87.4706 197.942C87.7866 198.767 88.9756 199.442 90.1126 199.442C91.8966 199.442 92.0266 199.157 91.0636 197.359C90.1866 195.72 90.2856 194.903 91.5286 193.53C92.3976 192.57 93.1086 190.39 93.1086 188.686C93.1086 184.38 89.2016 181.442 83.4736 181.442H79.1086V190.442ZM96.1086 190.442V199.442H102.109C106.776 199.442 108.109 199.109 108.109 197.942C108.109 196.831 106.942 196.442 103.609 196.442C99.7756 196.442 99.1086 196.146 99.1086 194.442C99.1086 192.886 99.7756 192.442 102.109 192.442C105.983 192.442 106.206 189.701 102.368 189.258C100.714 189.068 99.4936 188.247 99.2936 187.192C99.0166 185.732 99.7196 185.442 103.536 185.442C107.442 185.442 108.109 185.15 108.109 183.442C108.109 181.664 107.442 181.442 102.109 181.442H96.1086V190.442ZM117.109 182.132C117.109 182.512 118.327 186.562 119.815 191.132C122.093 198.127 122.861 199.442 124.669 199.442C126.486 199.442 127.171 198.244 129.105 191.692C130.363 187.43 131.602 183.38 131.858 182.692C132.136 181.944 131.489 181.442 130.244 181.442C128.58 181.442 127.84 182.56 126.537 187.042C124.725 193.276 123.994 193.135 122.126 186.192C121.18 182.674 120.364 181.442 118.979 181.442C117.951 181.442 117.109 181.753 117.109 182.132ZM134.109 190.442C134.109 198.775 134.257 199.442 136.109 199.442C137.961 199.442 138.109 198.775 138.109 190.442C138.109 182.109 137.961 181.442 136.109 181.442C134.257 181.442 134.109 182.109 134.109 190.442ZM141.109 190.442C141.109 198.775 141.257 199.442 143.109 199.442C144.22 199.442 145.109 198.775 145.109 197.942C145.109 197.101 146.001 196.442 147.14 196.442C148.258 196.442 149.431 197.117 149.747 197.942C150.064 198.767 151.205 199.442 152.283 199.442C153.772 199.442 154.095 198.973 153.625 197.492C153.284 196.419 153.695 194.21 154.537 192.582C157.669 186.524 153.347 181.442 145.062 181.442H141.109V190.442ZM156.609 182.442C155.615 184.05 157.034 185.442 159.668 185.442C162.024 185.442 162.109 185.687 162.109 192.442C162.109 197.998 162.419 199.442 163.609 199.442C164.799 199.442 165.109 197.998 165.109 192.442V185.442H168.109C170.442 185.442 171.109 184.998 171.109 183.442C171.109 181.634 170.442 181.442 164.168 181.442C160.35 181.442 156.949 181.892 156.609 182.442ZM173.109 188.442C173.109 194.109 173.49 195.823 175.109 197.442C177.502 199.835 181.824 200.03 184.886 197.885C186.845 196.514 187.109 195.443 187.109 188.885C187.109 182.936 186.808 181.442 185.609 181.442C184.455 181.442 184.109 182.727 184.109 187.008C184.109 193.448 182.84 196.442 180.109 196.442C177.378 196.442 176.109 193.448 176.109 187.008C176.109 182.727 175.763 181.442 174.609 181.442C173.419 181.442 173.109 182.886 173.109 188.442ZM194.937 182.578C191.734 183.751 190.109 187.795 190.109 194.591C190.109 198.775 190.384 199.442 192.109 199.442C193.22 199.442 194.109 198.775 194.109 197.942C194.109 196.894 195.165 196.442 197.609 196.442C200.053 196.442 201.109 196.894 201.109 197.942C201.109 198.775 201.998 199.442 203.109 199.442C204.857 199.442 205.107 198.78 205.095 194.192C205.076 186.818 204.269 184.576 201.032 182.902C199.479 182.099 198.073 181.478 197.909 181.521C197.744 181.564 196.407 182.04 194.937 182.578ZM208.109 190.442V199.442H214.609C219.72 199.442 221.109 199.121 221.109 197.942C221.109 196.831 219.942 196.442 216.609 196.442H212.109V188.942C212.109 182.109 211.931 181.442 210.109 181.442C208.257 181.442 208.109 182.109 208.109 190.442ZM82.1086 189.005C82.1086 192.402 82.2556 192.554 85.2576 192.255C91.5436 191.63 91.2976 185.442 84.9866 185.442C82.3546 185.442 82.1086 185.746 82.1086 189.005ZM145.109 188.942C145.109 191.961 145.436 192.442 147.487 192.442C150.522 192.442 152.46 190.123 151.624 187.49C151.164 186.039 150.119 185.442 148.042 185.442C145.357 185.442 145.109 185.738 145.109 188.942ZM195.347 186.604C194.666 187.285 194.109 188.877 194.109 190.142C194.109 192.112 194.621 192.442 197.672 192.442C201.09 192.442 201.223 192.309 200.922 189.192C200.581 185.652 197.657 184.294 195.347 186.604ZM121.85 207.871C114.545 210.478 111.624 215.043 112.36 222.703C112.743 226.684 113.52 228.32 116.4 231.2C119.4 234.2 120.81 234.833 125.287 235.193C129.667 235.545 131.228 235.203 134.109 233.261C138.962 229.991 141.356 225.044 140.681 219.684C139.965 213.994 137.801 210.955 132.71 208.491C127.802 206.115 126.913 206.064 121.85 207.871ZM13.1086 221.442V235.442H15.6086C17.7096 235.442 18.1086 234.972 18.1086 232.498C18.1086 230.854 19.1406 228.354 20.4436 226.838L22.7796 224.123L26.0176 229.783C28.8136 234.671 29.6616 235.442 32.2346 235.442H35.2136L30.7106 227.182L26.2086 218.922L30.1586 213.742C32.3306 210.893 34.1086 208.31 34.1086 208.002C34.1086 207.694 32.8456 207.442 31.3016 207.442C28.9916 207.442 27.6186 208.636 23.5516 214.183L18.6086 220.924L18.3126 214.183C18.0316 207.773 17.8966 207.442 15.5626 207.442H13.1086V221.442ZM38.1086 221.442V235.442H47.6086H57.1086V232.442V229.442H50.0426H42.9756L43.2926 226.692C43.5816 224.174 44.0086 223.916 48.3586 223.637C52.6156 223.364 53.1086 223.084 53.1086 220.942C53.1086 218.8 52.6156 218.52 48.3586 218.247C44.0396 217.97 43.6086 217.715 43.6086 215.442C43.6086 213.051 43.9046 212.929 50.3586 212.646C56.7786 212.365 57.1086 212.23 57.1086 209.896C57.1086 207.463 57.0286 207.442 47.6086 207.442H38.1086V221.442ZM60.1086 213.597C60.1086 219.477 60.2876 219.922 64.1086 223.557C67.4876 226.771 68.1086 227.989 68.1086 231.402C68.1086 235.224 68.2706 235.442 71.1086 235.442C73.9466 235.442 74.1086 235.224 74.1086 231.402C74.1086 227.989 74.7296 226.771 78.1086 223.557C81.9296 219.922 82.1086 219.477 82.1086 213.597C82.1086 207.698 82.0046 207.442 79.6086 207.442C77.2756 207.442 77.1086 207.775 77.1086 212.442C77.1086 216.109 76.5756 217.975 75.1086 219.442C72.4696 222.081 70.5406 221.965 67.5636 218.987C65.6766 217.101 65.1086 215.48 65.1086 211.987C65.1086 207.806 64.9086 207.442 62.6086 207.442C60.2126 207.442 60.1086 207.698 60.1086 213.597ZM86.1086 221.541V235.641L95.0046 235.291C101.925 235.02 104.357 234.53 105.949 233.088C108.768 230.535 109.644 225.908 107.832 223.142C106.558 221.198 106.561 220.647 107.856 218.697C109.669 215.966 108.883 212.241 105.908 209.47C104.063 207.751 102.39 207.442 94.9196 207.442H86.1086V221.541ZM149.41 209.4C145.34 211.882 143.926 216.826 144.317 227.204C144.604 234.82 144.653 234.947 147.359 235.258C149.83 235.543 150.109 235.264 150.109 232.508C150.109 229.463 150.146 229.442 155.543 229.442C160.727 229.442 160.991 229.568 161.293 232.192C161.544 234.376 162.193 235.009 164.449 235.267L167.29 235.592L166.949 224.433L166.609 213.274L163.343 210.358C159.403 206.84 154.196 206.482 149.41 209.4ZM172.109 221.442V235.442H175.109C177.776 235.442 178.109 235.109 178.109 232.442C178.109 229.764 178.437 229.442 181.161 229.442C183.653 229.442 184.405 229.992 185.259 232.442C186.097 234.846 186.881 235.442 189.207 235.442C192.555 235.442 192.554 235.444 190.735 231.09C189.453 228.022 189.52 227.648 191.735 225.517C193.612 223.711 194.109 222.186 194.109 218.238C194.109 213.941 193.676 212.84 191.003 210.343C188.119 207.649 187.335 207.442 180.003 207.442H172.109V221.442ZM198.109 221.442V235.442L203.359 235.42C209.432 235.395 216.111 232.705 218.472 229.335C222.545 223.519 221.297 215.57 215.513 210.492C212.352 207.716 211.413 207.442 205.074 207.442H198.109V221.442ZM92.1086 215.442V218.547L97.3586 218.244C102.212 217.965 102.609 217.753 102.609 215.442C102.609 213.131 102.212 212.919 97.3586 212.64L92.1086 212.337V215.442ZM120.865 214.419C115.754 218.44 117.099 227.197 123.151 229.307C127.739 230.906 128.564 230.771 132.032 227.853C140.869 220.418 129.945 207.277 120.865 214.419ZM152.196 214.355C150.776 215.775 150.109 217.72 150.109 220.442V224.442H155.609H161.109L161.094 220.192C161.075 215.024 160.372 213.797 156.936 212.935C154.971 212.442 153.741 212.81 152.196 214.355ZM178.109 218.574V224.705L182.324 224.14C188.8 223.271 191.158 218.491 187.109 214.442C185.871 213.204 183.776 212.442 181.609 212.442H178.109V218.574ZM204.109 220.942V229.442H207.154C211.343 229.442 215.119 225.532 215.077 221.237C215.039 217.27 213.384 214.877 209.712 213.481C204.333 211.436 204.109 211.734 204.109 220.942ZM92.1086 226.494V229.547L97.3586 229.244C101.83 228.987 102.654 228.628 102.911 226.822C103.246 224.481 100.999 223.479 95.3586 223.456C92.3986 223.443 92.1086 223.715 92.1086 226.494ZM18.1086 249.482C18.1086 250.054 19.0086 252.286 20.1086 254.442C21.2086 256.598 22.1086 259.955 22.1086 261.902C22.1086 263.849 22.5586 265.442 23.1086 265.442C23.6586 265.442 24.1086 264.148 24.1086 262.566C24.1086 260.985 25.2276 257.16 26.5956 254.066C27.9636 250.973 28.6206 248.442 28.0546 248.442C27.4896 248.442 26.2126 250.355 25.2186 252.692L23.4106 256.942L21.2396 252.692C19.0876 248.48 18.1086 247.476 18.1086 249.482ZM33.6086 249.637C30.6856 251.294 30.1406 252.47 30.1236 257.153C30.1126 260.211 30.7076 261.923 32.2976 263.403C34.7966 265.731 36.3276 265.922 39.4246 264.292C42.5136 262.666 43.0756 261.508 43.0936 256.731C43.1166 250.2 38.5886 246.813 33.6086 249.637ZM47.2396 255.037C47.1346 260.751 47.4646 262.454 48.9376 263.787C51.3366 265.958 54.3956 265.887 56.4536 263.613C58.3276 261.543 58.9406 247.81 57.1086 248.942C56.5586 249.282 56.1086 251.972 56.1086 254.919C56.1086 261.809 55.4286 263.442 52.5606 263.442C49.5006 263.442 49.0806 262.604 48.1526 254.647L47.3716 247.942L47.2396 255.037ZM62.7756 249.109C61.6886 250.195 61.9996 265.442 63.1086 265.442C63.6586 265.442 64.1086 263.867 64.1086 261.942C64.1086 259.258 64.5216 258.442 65.8816 258.442C66.8816 258.442 68.4756 259.967 69.5386 261.942C70.5756 263.867 71.8026 265.442 72.2656 265.442C73.4486 265.442 73.3306 264.773 71.5356 261.301C70.1056 258.536 70.1056 258.103 71.5356 256.522C73.7246 254.103 73.4986 251.828 70.8856 249.999C68.6216 248.412 63.9806 247.903 62.7756 249.109ZM82.1316 250.419C79.5346 253.016 80.4436 255.062 85.2956 257.537C90.7626 260.327 90.2036 262.979 84.1756 262.844C80.2766 262.757 80.0036 262.892 81.6476 264.094C85.7796 267.115 92.0316 263.927 90.6316 259.514C90.2696 258.374 89.6666 257.44 89.2916 257.438C88.9156 257.436 87.1556 256.549 85.3796 255.466C81.0036 252.798 81.8816 249.981 86.8376 250.785C89.7566 251.259 90.0906 251.125 89.0676 249.892C87.3846 247.864 84.4646 248.086 82.1316 250.419ZM94.6046 256.455C92.0006 264.272 91.7636 268.488 94.2316 263.071C95.8886 259.434 100.745 259.354 102.109 262.942C102.632 264.317 103.49 265.442 104.015 265.442C105.267 265.442 99.7956 249.171 98.3866 248.701C97.7926 248.503 96.0906 251.992 94.6046 256.455ZM107.109 257.001C107.109 262.452 107.472 265.336 108.109 264.942C108.659 264.602 109.109 262.804 109.109 260.946C109.109 257.885 109.413 257.531 112.359 257.165L115.609 256.762L112.359 256.602C109.45 256.459 109.109 256.127 109.109 253.442C109.109 250.68 109.387 250.442 112.609 250.442C114.534 250.442 116.109 249.992 116.109 249.442C116.109 248.892 114.084 248.442 111.609 248.442H107.109V257.001ZM119.109 256.942V265.442H123.609C126.084 265.442 128.109 264.992 128.109 264.442C128.109 263.892 126.534 263.442 124.609 263.442C121.387 263.442 121.109 263.204 121.109 260.442C121.109 257.775 121.442 257.442 124.109 257.442C125.759 257.442 127.109 256.992 127.109 256.442C127.109 255.892 125.759 255.442 124.109 255.442C121.576 255.442 121.109 255.053 121.109 252.942C121.109 250.752 121.542 250.442 124.609 250.442C126.534 250.442 128.109 249.992 128.109 249.442C128.109 248.892 126.084 248.442 123.609 248.442H119.109V256.942ZM130.109 249.442C130.109 249.992 131.234 250.442 132.609 250.442C135.055 250.442 135.109 250.605 135.109 258.001C135.109 262.786 135.476 265.333 136.109 264.942C136.659 264.602 137.109 261.201 137.109 257.383C137.109 250.447 137.111 250.442 139.91 250.442C142.241 250.442 143.079 251.201 144.91 254.969C146.119 257.458 147.109 260.86 147.109 262.528C147.109 264.295 147.526 265.302 148.109 264.942C148.659 264.602 149.109 262.758 149.109 260.843C149.109 258.929 150.009 255.598 151.109 253.442C153.385 248.98 153.577 248.035 152.007 249.005C151.401 249.38 150.218 251.319 149.379 253.314L147.853 256.942L145.784 252.692L143.715 248.442H136.912C133.043 248.442 130.109 248.873 130.109 249.442ZM160.109 256.942C160.109 261.942 160.521 265.442 161.109 265.442C161.659 265.442 162.109 263.671 162.109 261.505C162.109 257.813 162.311 257.544 165.359 257.165L168.609 256.762L165.359 256.602C162.45 256.459 162.109 256.127 162.109 253.442C162.109 250.68 162.387 250.442 165.609 250.442C167.534 250.442 169.109 249.992 169.109 249.442C169.109 248.892 167.084 248.442 164.609 248.442H160.109V256.942ZM172.109 256.942C172.109 262.433 172.472 265.336 173.109 264.942C173.659 264.602 174.109 261.002 174.109 256.942C174.109 252.882 173.659 249.282 173.109 248.942C172.472 248.548 172.109 251.451 172.109 256.942ZM178.109 256.942C178.109 261.942 178.521 265.442 179.109 265.442C179.659 265.442 180.109 263.867 180.109 261.942C180.109 257.287 182.278 257.362 185.218 262.119C186.468 264.141 187.672 265.252 187.894 264.587C188.116 263.922 187.573 262.274 186.689 260.924C185.188 258.633 185.21 258.341 187.021 256.53C190.714 252.837 187.194 248.442 180.544 248.442C178.155 248.442 178.109 248.603 178.109 256.942ZM192.68 250.013C191.816 250.878 191.109 252.158 191.109 252.858C191.109 254.512 193.989 257.016 196.917 257.91C198.558 258.41 199.136 259.24 198.917 260.778C198.559 263.29 194.787 264.249 192.554 262.396C191.502 261.523 191.109 261.508 191.109 262.341C191.109 264.446 195.839 265.886 198.609 264.624C202.632 262.791 201.951 258.999 197.044 255.901C192.147 252.809 192.392 250.893 197.661 251.074C201.165 251.194 201.338 251.083 199.616 249.824C197.13 248.006 194.619 248.075 192.68 250.013ZM202.609 249.442C202.258 250.009 203.099 250.442 204.55 250.442C207.068 250.442 207.109 250.563 207.109 257.942C207.109 262.275 207.531 265.442 208.109 265.442C208.687 265.442 209.109 262.275 209.109 257.942C209.109 250.609 209.165 250.442 211.609 250.442C212.984 250.442 214.109 249.992 214.109 249.442C214.109 248.892 211.661 248.442 208.668 248.442C205.675 248.442 202.949 248.892 202.609 249.442ZM33.1436 252.376C30.6516 257.033 32.6576 263.442 36.6086 263.442C39.3476 263.442 41.1086 260.898 41.1086 256.942C41.1086 252.986 39.3476 250.442 36.6086 250.442C35.2296 250.442 33.7316 251.279 33.1436 252.376ZM64.1086 253.442C64.1086 256.367 64.3176 256.549 67.3586 256.255C70.0746 255.993 70.6086 255.532 70.6086 253.442C70.6086 251.352 70.0746 250.891 67.3586 250.629C64.3176 250.335 64.1086 250.517 64.1086 253.442ZM180.109 253.442C180.109 255.964 180.502 256.442 182.574 256.442C185.506 256.442 187.609 253.342 185.862 251.595C185.228 250.961 183.674 250.442 182.409 250.442C180.52 250.442 180.109 250.978 180.109 253.442ZM97.1366 253.868C95.6386 257.808 95.8356 258.442 98.5566 258.442C100.877 258.442 100.948 258.272 99.9086 255.192C98.4306 250.813 98.3186 250.759 97.1366 253.868ZM214.109 263.942C214.109 264.767 214.559 265.442 215.109 265.442C215.659 265.442 216.109 264.767 216.109 263.942C216.109 263.117 215.659 262.442 215.109 262.442C214.559 262.442 214.109 263.117 214.109 263.942Z" fill="white"/>
</svg>
