<svg width="40" height="28" viewBox="0 0 40 28" fill="none" xmlns="http://www.w3.org/2000/svg">
    <path
        d="M13.4617 28C12.5634 28 11.7176 27.8102 10.9243 27.4307C10.131 27.0511 9.47274 26.5199 8.94944 25.837L0 14L8.94944 2.25167C9.47274 1.57033 10.1227 1.02433 10.8993 0.613667C11.6793 0.204556 12.5342 0 13.4642 0H35.9628C37.0793 0 38.0318 0.367111 38.8201 1.10133C39.6067 1.83556 40 2.72456 40 3.76833V24.2317C40 25.2739 39.6067 26.1629 38.8201 26.8987C38.0335 27.6329 37.081 28 35.9628 28H13.4617ZM13.4617 25.6667H35.9603C36.3436 25.6667 36.696 25.5173 37.0177 25.2187C37.3377 24.9184 37.4977 24.5894 37.4977 24.2317V3.76833C37.4977 3.41055 37.3377 3.08156 37.0177 2.78133C36.696 2.48267 36.3436 2.33333 35.9603 2.33333H13.4617C12.98 2.33333 12.5234 2.44533 12.0917 2.66933C11.6584 2.89333 11.3135 3.17022 11.0568 3.5L3.04981 14L11.0593 24.5C11.316 24.8298 11.6609 25.1067 12.0942 25.3307C12.5276 25.5547 12.9817 25.6667 13.4617 25.6667ZM17.6364 21.7187L24.136 15.652L30.6356 21.7187L32.4055 20.0667L25.9059 14L32.4055 7.93333L30.6356 6.28133L24.136 12.348L17.6364 6.28133L15.8665 7.93333L22.3661 14L15.8665 20.0667L17.6364 21.7187Z"
        fill="currentColor" />
</svg>    